<svg xmlns="http://www.w3.org/2000/svg" baseProfile="full" version="1.1" style="fill: none;" width="1860px" height="840px"><path style="stroke-width: 15px; stroke-linecap: round; stroke-linejoin: round; stroke: rgb(106, 106, 106); fill: none;" d=""/><path style="stroke-width: 15px; stroke-linecap: round; stroke-linejoin: round; stroke: rgb(74, 74, 74); fill: none;" d=""/><path style="stroke-width: 15px; stroke-linecap: round; stroke-linejoin: round; stroke: rgb(10, 10, 10); fill: none;" d="M420,300 A60,60 0 0,0 360,240 A60,60 0 0,0 300,180 A120,60 0 0,0 180,120 A120,60 0 0,0 60,180 A45,60 0 0,0 15,240 L15,360 L15,480 A45,60 0 0,0 60,540 A120,60 0 0,0 180,600 A120,60 0 0,0 300,540 A60,60 0 0,0 360,480 A60,60 0 0,0 420,420 M180,360 L180,360 L1845,15 M180,360 L180,360 L1845,720 M1245,240 L1245,240 L1500,180 M1080,420 L1080,420 L1620,540 M1530,330 L1530,330 L1845,270 M60,300 L60,300 L60,420 M90,315 L90,315 L150,360 L90,405 "/></svg>