<svg xmlns="http://www.w3.org/2000/svg" baseProfile="full" version="1.1" style="fill: none;" width="1860px" height="840px"><path style="stroke-width: 15px; stroke-linecap: round; stroke-linejoin: round; stroke: rgb(106, 106, 106); fill: none;" d=""/><path style="stroke-width: 15px; stroke-linecap: round; stroke-linejoin: round; stroke: rgb(74, 74, 74); fill: none;" d=""/><path style="stroke-width: 31px; stroke-linecap: round; stroke-linejoin: round; stroke: rgb(10, 10, 10); fill: none;" d="M150,555 L150,555 L150,525 M585,195 L585,195 L570,240 M1260,270 L1260,270 L1275,300 M1230,555 L1230,555 L1230,570 M750,705 L750,705 L690,720 M900,180 L900,180 L915,240 M1695,120 L1695,120 L1710,180 M1755,510 L1755,510 L1725,540 M225,60 L225,60 L270,165 M645,540 L645,540 L675,525 M1095,660 L1095,660 L1110,660 M1590,750 L1590,750 L1590,750 L1605,750 M1455,60 L1455,60 L1485,75 M1650,30 L1650,30 L1665,45 M1755,15 L1755,15 L1755,30 M1800,120 L1800,120 L1770,150 M1545,165 L1545,165 L1530,195 L1530,195 M300,615 L300,615 L165,720 "/></svg>