<svg xmlns="http://www.w3.org/2000/svg" baseProfile="full" version="1.1" style="fill: none;" width="1860px" height="840px"><path style="stroke-width: 15px; stroke-linecap: round; stroke-linejoin: round; stroke: rgb(106, 106, 106); fill: none;" d=""/><path style="stroke-width: 15px; stroke-linecap: round; stroke-linejoin: round; stroke: rgb(74, 74, 74); fill: none;" d=""/><path style="stroke-width: 31px; stroke-linecap: round; stroke-linejoin: round; stroke: rgb(10, 10, 10); fill: none;" d="M195,480 A30,135 0 0,0 225,345 A75,165 0 0,0 300,180 A120,30 0 0,0 420,150 A285,45 0 0,0 705,195 A420,15 0 0,0 1125,180 A225,30 0 0,0 1350,150 A210,90 0 0,0 1560,60 A15,15 0 0,0 1575,75 A30,75 0 0,0 1545,150 L1545,150 A15,60 0 0,0 1560,210 A90,75 0 0,0 1470,285 A105,180 0 0,0 1365,465 A105,75 0 0,0 1470,540 L1470,570 A15,30 0 0,0 1485,600 L1485,600 A75,15 0 0,0 1410,615 A60,30 0 0,0 1350,585 M1545,450 A180,270 0 0,0 1725,180 A60,75 0 0,0 1785,105 A45,90 0 0,0 1740,15 L1740,45 L1740,60 A60,15 0 0,0 1680,45 A15,15 0 0,0 1665,30 A15,15 0 0,0 1650,15 A60,75 0 0,0 1710,90 A30,15 0 0,0 1740,105 L1770,105 L1785,105 M1845,450 A255,75 0 0,0 1590,375 A585,210 0 0,0 1005,165 A285,150 0 0,0 720,15 A480,15 0 0,0 240,30 A105,15 0 0,0 135,15 A15,105 0 0,0 150,120 A60,30 0 0,0 90,150 A330,30 0 0,0 420,180 A270,90 0 0,0 690,270 A270,105 0 0,0 960,375 A60,15 0 0,0 1020,390 A150,45 0 0,0 1170,435 L1200,435 A165,30 0 0,0 1035,465 A105,30 0 0,0 930,495 A75,45 0 0,0 855,540 L855,540 A255,30 0 0,0 1110,570 A75,15 0 0,0 1185,585 A150,30 0 0,0 1035,615 A180,45 0 0,0 855,660 A135,90 0 0,0 720,750 A60,30 0 0,0 660,780 L660,780 A15,30 0 0,0 675,810 A375,60 0 0,0 1050,750 A60,15 0 0,0 1110,735 M1665,360 A30,135 0 0,0 1635,495 A75,165 0 0,0 1560,660 A120,30 0 0,0 1440,690 A285,45 0 0,0 1155,645 A420,15 0 0,0 735,660 A225,30 0 0,0 510,690 A210,90 0 0,0 300,780 A15,15 0 0,0 285,765 A30,75 0 0,0 315,690 L315,690 A15,60 0 0,0 300,630 A90,75 0 0,0 390,555 A105,180 0 0,0 495,375 A105,75 0 0,0 390,300 L390,270 A15,30 0 0,0 375,240 L375,240 A75,15 0 0,0 450,225 A60,30 0 0,0 510,255 M315,390 A180,270 0 0,0 135,660 A60,75 0 0,0 75,735 A45,90 0 0,0 120,825 L120,795 L120,780 A60,15 0 0,0 180,795 A15,15 0 0,0 195,810 A15,15 0 0,0 210,825 A60,75 0 0,0 150,750 A30,15 0 0,0 120,735 L90,735 L75,735 M15,390 A255,75 0 0,0 270,465 A585,210 0 0,0 855,675 A285,150 0 0,0 1140,825 A480,15 0 0,0 1620,810 A105,15 0 0,0 1725,825 A15,105 0 0,0 1710,720 A60,30 0 0,0 1770,690 A330,30 0 0,0 1440,660 A270,90 0 0,0 1170,570 A270,105 0 0,0 900,465 A60,15 0 0,0 840,450 A150,45 0 0,0 690,405 L660,405 A165,30 0 0,0 825,375 A105,30 0 0,0 930,345 A75,45 0 0,0 1005,300 L1005,300 A255,30 0 0,0 750,270 A75,15 0 0,0 675,255 A150,30 0 0,0 825,225 A180,45 0 0,0 1005,180 A135,90 0 0,0 1140,90 A60,30 0 0,0 1200,60 L1200,60 A15,30 0 0,0 1185,30 A375,60 0 0,0 810,90 A60,15 0 0,0 750,105 "/></svg>