<svg xmlns="http://www.w3.org/2000/svg" baseProfile="full" version="1.1" style="fill: none;" width="1860px" height="840px"><path style="stroke-width: 15px; stroke-linecap: round; stroke-linejoin: round; stroke: rgb(106, 106, 106); fill: none;" d=""/><path style="stroke-width: 15px; stroke-linecap: round; stroke-linejoin: round; stroke: rgb(74, 74, 74); fill: none;" d=""/><path style="stroke-width: 31px; stroke-linecap: round; stroke-linejoin: round; stroke: rgb(10, 10, 10); fill: none;" d="M195,675 A825,585 0 0,0 1020,90 A405,480 0 0,0 615,570 A1095,435 0 0,0 1710,135 M1665,540 A75,60 0 0,0 1590,600 A60,15 0 0,0 1650,615 A15,30 0 0,0 1665,585 L1650,585 L1650,585 L1650,555 L1665,555 A15,15 0 0,0 1650,540 M1665,435 A15,45 0 0,1 1650,390 A15,15 0 0,1 1665,375 A15,15 0 0,1 1680,360 L1680,390 M1110,120 A60,105 0 0,1 1050,225 A90,165 0 0,1 960,390 A150,165 0 0,1 810,555 A120,90 0 0,1 690,645 A15,15 0 0,1 675,660 M495,120 A15,285 0 0,1 510,405 A15,240 0 0,1 525,645 A75,60 0 0,1 600,585 A375,255 0 0,1 975,330 A255,135 0 0,1 1230,195 A180,105 0 0,1 1410,90 M1575,15 A45,480 0 0,1 1530,495 M90,345 L90,345 L90,405 L75,480 M225,510 L225,510 L645,45 M195,165 A825,585 0 0,1 1020,750 A405,480 0 0,1 615,270 A1095,435 0 0,1 1710,705 M1665,300 A75,60 0 0,1 1590,240 A60,15 0 0,1 1650,225 A15,30 0 0,1 1665,255 L1650,255 L1650,255 L1650,285 L1665,285 A15,15 0 0,1 1650,300 M1665,405 A15,45 0 0,0 1650,450 A15,15 0 0,0 1665,465 A15,15 0 0,0 1680,480 L1680,450 M1110,720 A60,105 0 0,0 1050,615 A90,165 0 0,0 960,450 A150,165 0 0,0 810,285 A120,90 0 0,0 690,195 A15,15 0 0,0 675,180 M495,720 A15,285 0 0,0 510,435 A15,240 0 0,0 525,195 A75,60 0 0,0 600,255 A375,255 0 0,0 975,510 A255,135 0 0,0 1230,645 A180,105 0 0,0 1410,750 M1575,825 A45,480 0 0,0 1530,345 M90,495 L90,495 L90,435 L75,360 M225,330 L225,330 L645,795 "/></svg>